<svg id="Capa_1" data-name="Capa 1" xmlns="http://www.w3.org/2000/svg" viewBox="0 0 502.31 198.21"><defs><style>.cls-1{fill:#179bd5;}.cls-2{fill:#50a72c;}</style></defs><title>logo</title><path d="M192.06,98.32V85.89h1.81V98.32c0,3.91,2,6.72,5.76,6.72s5.77-2.81,5.77-6.72V85.89h1.76V98.32c0,5.3-3,8.44-7.53,8.44S192.06,103.62,192.06,98.32Z"/><path d="M233.22,85.89v20.55h-1.65L220.35,89.59l-.44-.84,0,1v16.72h-1.71V85.89h1.66l11.27,16.83.39.69,0-1V85.89Z"/><path d="M247.18,87.45v17.43h2.32v1.56h-6.42v-1.56h2.32V87.45h-2.32V85.89h6.42v1.56Z"/><path d="M273.94,85.89l-7.46,20.55h-1.85L257,85.89H259l6.47,17.89.19.56.18-.56,6.25-17.89Z"/><path d="M295.16,104.8v1.64H283V85.89h11.77v1.66h-10V95h9v1.63h-9v8.18Z"/><path d="M318.11,104.88v1.56a4,4,0,0,1-4.05-2.3l-3.5-6.26h-3.84v8.56h-1.78V85.89h5.55c4.7,0,7.07,2.25,7.07,6.08,0,3.13-2,5.07-5,5.69l3,5.46C316.3,104.44,317,104.88,318.11,104.88Zm-7.76-8.62c3.82,0,5.4-1.73,5.4-4.25,0-2.86-1.7-4.51-5.27-4.51h-3.76v8.76Z"/><path d="M332.69,106.76a8.55,8.55,0,0,1-6.52-2.57l1.08-1.33a7.17,7.17,0,0,0,5.44,2.23c3.24,0,4.91-1.66,4.91-4.08,0-2.57-2-3.44-4.18-4.16-3-1-6.63-1.67-6.63-6,0-3,2.38-5.31,6.17-5.31a8.93,8.93,0,0,1,6,2L338,88.93A7.69,7.69,0,0,0,333,87.16c-2.74,0-4.39,1.54-4.39,3.55,0,3,3,3.56,5.79,4.51,2.56.87,5,2.08,5,5.75s-2.57,5.79-6.69,5.79Z"/><path d="M351.85,87.45v17.43h2.32v1.56h-6.42v-1.56h2.32V87.45h-2.32V85.89h6.42v1.56Z"/><path d="M379.88,96.05c0,6.13-3.82,10.39-10,10.39H364V85.89h5.69C376.24,85.89,379.88,90,379.88,96.05Zm-1.87,0c0-5.09-2.84-8.54-8.3-8.54h-3.92v17.27h4.14C375.1,104.82,378,101.38,378,96.09Z"/><path d="M400.06,100.24h-8.74l-2.17,6.2h-1.9l7.5-20.55h1.81l7.74,20.55h-2Zm-.57-1.56-3.43-9.33L395.6,88l-.45,1.36-3.28,9.34Z"/><path d="M429.16,96.05c0,6.13-3.82,10.39-10,10.39h-5.86V85.89H419C425.52,85.89,429.16,90,429.16,96.05Zm-1.87,0c0-5.09-2.84-8.54-8.3-8.54h-3.92v17.27h4.14C424.38,104.82,427.29,101.38,427.29,96.09Z"/><path d="M207.3,127.89v20.55h-1.65l-11.22-16.85-.44-.84,0,1v16.72H192.3V127.89H194l11.27,16.83.39.69,0-1V127.89Z"/><path d="M229.25,142.24h-8.74l-2.18,6.2h-1.89l7.5-20.55h1.8l7.74,20.55h-1.95Zm-.58-1.56-3.43-9.33-.45-1.37-.45,1.36-3.28,9.34Z"/><path d="M240.77,138.16c0-6.21,4-10.66,9.64-10.66a9,9,0,0,1,5.88,1.92l-1,1.4a7.37,7.37,0,0,0-4.89-1.66c-4.57,0-7.79,3.59-7.79,9s3.16,8.93,7.61,8.93a7.39,7.39,0,0,0,5.36-1.85l.92,1.36a9,9,0,0,1-6.29,2.16C244.49,148.76,240.77,144.31,240.77,138.16Z"/><path d="M268.33,129.45v17.43h2.33v1.56h-6.43v-1.56h2.33V129.45h-2.33v-1.56h6.43v1.56Z"/><path d="M298,138.13c0,5.93-3.83,10.63-9.54,10.63s-9.55-4.61-9.55-10.63,3.84-10.63,9.55-10.63S298,132,298,138.13Zm-17.25,0c0,5.21,2.95,9,7.71,9s7.71-3.77,7.71-9-3-9-7.71-9S280.75,132.84,280.75,138.13Z"/><path d="M323,127.89v20.55h-1.65l-11.22-16.85-.44-.84,0,1v16.72H308V127.89h1.66l11.26,16.83.4.69,0-1V127.89Z"/><path d="M344.93,142.24h-8.74l-2.18,6.2h-1.89l7.49-20.55h1.81l7.74,20.55h-2Zm-.58-1.56-3.43-9.33-.45-1.37-.45,1.36-3.28,9.34Z"/><path d="M369.25,146.82v1.62h-11.1V127.89h1.78v18.93Z"/><path d="M406.34,138.05c0,6.13-3.82,10.39-10,10.39h-5.86V127.89h5.69C402.71,127.89,406.34,132,406.34,138.05Zm-1.87,0c0-5.09-2.83-8.54-8.3-8.54h-3.92v17.27h4.15C401.56,146.82,404.47,143.38,404.47,138.09Z"/><path d="M428.5,146.8v1.64H416.36V127.89h11.78v1.66h-10V137h9v1.63h-9v8.18Z"/><path d="M449.37,146.82v1.62H438.28V127.89h1.78v18.93Z"/><path d="M191,180.16c0-6.21,4-10.66,9.63-10.66a9,9,0,0,1,5.89,1.92l-1,1.4a7.39,7.39,0,0,0-4.89-1.66c-4.58,0-7.79,3.59-7.79,9s3.16,8.93,7.61,8.93a7.39,7.39,0,0,0,5.36-1.85l.92,1.36a9,9,0,0,1-6.29,2.16C194.7,190.76,191,186.31,191,180.16Z"/><path d="M231.09,169.89v20.55h-1.78v-9.66H217.69v9.66h-1.78V169.89h1.78v9.24h11.62v-9.24Z"/><path d="M253,184.24h-8.73l-2.18,6.2h-1.9l7.5-20.55h1.81l7.74,20.55h-2Zm-.57-1.56L249,173.35l-.46-1.37-.45,1.36-3.28,9.34Z"/><path d="M264.55,180.16c0-6.21,4-10.66,9.63-10.66a9,9,0,0,1,5.89,1.92l-1,1.4a7.34,7.34,0,0,0-4.88-1.66c-4.58,0-7.79,3.59-7.79,9s3.16,8.93,7.6,8.93a7.36,7.36,0,0,0,5.36-1.85l.93,1.36a9,9,0,0,1-6.29,2.16C268.26,190.76,264.55,186.31,264.55,180.16Z"/><path d="M306.8,180.13c0,5.93-3.83,10.63-9.54,10.63s-9.55-4.61-9.55-10.63,3.84-10.63,9.55-10.63S306.8,174,306.8,180.13Zm-17.25,0c0,5.21,2.95,9,7.71,9s7.71-3.77,7.71-9-3-9-7.71-9S289.55,174.84,289.55,180.13Z"/><path d="M339.81,184.24h-8.74l-2.18,6.2H327l7.49-20.55h1.81L344,190.44h-2Zm-.58-1.56-3.43-9.33-.46-1.37-.44,1.36-3.28,9.34Z"/><path d="M352.38,182.32V169.89h1.81v12.43c0,3.91,2,6.72,5.76,6.72s5.77-2.81,5.77-6.72V169.89h1.76v12.43c0,5.3-3,8.44-7.53,8.44S352.38,187.62,352.38,182.32Z"/><path d="M383.38,190.76a8.55,8.55,0,0,1-6.52-2.57l1.08-1.33a7.15,7.15,0,0,0,5.44,2.23c3.23,0,4.91-1.66,4.91-4.08s-2-3.44-4.18-4.16c-3-1-6.63-1.67-6.63-6,0-3,2.38-5.31,6.17-5.31a8.93,8.93,0,0,1,6,2l-1,1.43a7.64,7.64,0,0,0-5.07-1.77c-2.74,0-4.4,1.54-4.4,3.55,0,3,3,3.56,5.8,4.51,2.56.87,5,2.08,5,5.75s-2.57,5.79-6.69,5.79Z"/><path d="M412.5,171.51h-6.65v18.93h-1.78V171.51h-6.65v-1.62H412.5Z"/><path d="M434.68,188.88v1.56a4,4,0,0,1-4-2.3l-3.5-6.26h-3.85v8.56h-1.78V169.89h5.56c4.7,0,7.07,2.25,7.07,6.08,0,3.13-2,5.07-5,5.69l3,5.46C432.87,188.44,433.59,188.88,434.68,188.88Zm-7.75-8.62c3.81,0,5.4-1.73,5.4-4.25,0-2.86-1.7-4.51-5.28-4.51h-3.76v8.76Z"/><path d="M455,184.24H446.3l-2.18,6.2h-1.89l7.5-20.55h1.81l7.73,20.55h-1.95Zm-.57-1.56L451,173.35l-.45-1.37-.45,1.36-3.28,9.34Z"/><path d="M479.36,188.82v1.62H468.27V169.89H470v18.93Z"/><path d="M188.92,40.1V8.65h4.59V40.1c0,9.9,5,17,14.57,17s14.6-7.11,14.6-17V8.65h4.45V40.1c0,13.42-7.5,21.37-19.06,21.37S188.92,53.52,188.92,40.1Z"/><path d="M284.28,8.65v52H280.1L251.71,18l-1.12-2.14,0,2.46V60.65h-4.32v-52h4.2L279,51.24,280,53,280,50.45V8.65Z"/><path d="M300.8,34.65c0-15.72,10.22-27,24.39-27,6.74,0,11.39,2.05,14.89,4.88l-2.51,3.53a18.74,18.74,0,0,0-12.37-4.19c-11.58,0-19.71,9.08-19.71,22.79,0,13.54,8,22.6,19.25,22.6,6.71,0,10.51-2,13.57-4.7L340.64,56c-3.19,2.82-8,5.46-15.92,5.46C310.21,61.47,300.8,50.21,300.8,34.65Z"/><path d="M382,45H359.83l-5.5,15.69h-4.8l19-52h4.57l19.59,52h-4.95Zm-1.45-4-8.69-23.62-1.15-3.45-1.14,3.43L361.22,41Z"/><path d="M405,40.1V8.65h4.58V40.1c0,9.9,5,17,14.57,17s14.61-7.11,14.61-17V8.65h4.45V40.1c0,13.42-7.51,21.37-19.06,21.37S405,53.52,405,40.1Z"/><path d="M474.58,61.47c-8.49,0-13.43-3.34-16.5-6.52l2.74-3.36a18.08,18.08,0,0,0,13.77,5.66c8.18,0,12.42-4.2,12.42-10.34,0-6.5-4.93-8.71-10.57-10.52-7.65-2.45-16.79-4.24-16.79-15.3,0-7.6,6-13.45,15.62-13.45,7.21,0,11.65,2.22,15.2,5.08l-2.38,3.62a19.29,19.29,0,0,0-12.84-4.48c-6.93,0-11.13,3.89-11.13,9,0,7.57,7.5,9,14.66,11.42,6.5,2.18,12.73,5.25,12.73,14.54,0,9-6.48,14.66-16.93,14.66Z"/><path class="cls-1" d="M8.58,10.69H169L139.34,72.32s-13-6.11-25.41-4.84c0,0-20.89-.84-33.74,7.91s-17.23,6-19.63,6.35c-5.92.17-23.15-4.38-27.1-10.73Z"/><path class="cls-2" d="M83.68,191.29l26.37-56.4s-7.13-18.28-23.93-26.75a113.12,113.12,0,0,0-19.2-4.7S47.44,100,38.82,85.13Z"/></svg>